<svg xmlns="http://www.w3.org/2000/svg" xmlns:xlink="http://www.w3.org/1999/xlink" width="457" height="457" viewBox="0 0 457 457">
  <defs>
    <polygon id="instagram-icon-black-a" points=".001 .722 456.278 .722 456.278 456.94 .001 456.94"/>
  </defs>
  <g fill="none" fill-rule="evenodd">
    <mask id="instagram-icon-black-b" fill="#fff">
      <use xlink:href="#instagram-icon-black-a"/>
    </mask>
    <path fill="#000" d="M228.14,0.72 C166.181,0.72 158.412,0.981 134.079,2.093 C109.795,3.202 93.211,7.058 78.701,12.697 C63.698,18.527 50.975,26.328 38.292,39.011 C25.609,51.694 17.808,64.418 11.979,79.42 C6.337,93.932 2.481,110.516 1.374,134.799 C0.263,159.132 0.001,166.9 0.001,228.859 C0.001,290.82 0.263,298.588 1.374,322.921 C2.481,347.204 6.337,363.788 11.979,378.3 C17.808,393.302 25.609,406.026 38.292,418.709 C50.975,431.392 63.698,439.193 78.701,445.023 C93.211,450.662 109.795,454.518 134.079,455.627 C158.412,456.737 166.181,457 228.14,457 C290.099,457 297.869,456.737 322.202,455.627 C346.485,454.518 363.069,450.662 377.58,445.023 C392.583,439.193 405.305,431.392 417.988,418.709 C430.671,406.026 438.472,393.302 444.302,378.3 C449.943,363.788 453.799,347.204 454.907,322.921 C456.018,298.588 456.279,290.82 456.279,228.859 C456.279,166.9 456.018,159.132 454.907,134.799 C453.799,110.516 449.943,93.932 444.302,79.42 C438.472,64.418 430.671,51.694 417.988,39.011 C405.305,26.328 392.583,18.527 377.58,12.697 C363.069,7.058 346.485,3.202 322.202,2.093 C297.869,0.981 290.099,0.72 228.14,0.72 M228.14,41.826 C289.056,41.826 296.27,42.058 320.328,43.155 C342.571,44.17 354.651,47.888 362.69,51.011 C373.34,55.15 380.94,60.094 388.922,68.077 C396.907,76.061 401.851,83.66 405.988,94.309 C409.111,102.348 412.829,114.429 413.844,136.671 C414.941,160.729 415.174,167.943 415.174,228.859 C415.174,289.777 414.941,296.991 413.844,321.047 C412.829,343.291 409.111,355.372 405.988,363.411 C401.851,374.059 396.907,381.659 388.922,389.643 C380.94,397.626 373.34,402.57 362.69,406.708 C354.651,409.832 342.571,413.55 320.328,414.563 C296.274,415.662 289.061,415.893 228.14,415.893 C167.219,415.893 160.006,415.662 135.952,414.563 C113.71,413.55 101.629,409.832 93.59,406.708 C82.941,402.57 75.341,397.626 67.358,389.643 C59.376,381.659 54.432,374.059 50.293,363.411 C47.169,355.372 43.452,343.291 42.436,321.047 C41.34,296.991 41.107,289.777 41.107,228.859 C41.107,167.943 41.34,160.729 42.436,136.671 C43.452,114.429 47.169,102.348 50.293,94.309 C54.432,83.66 59.376,76.061 67.358,68.077 C75.341,60.094 82.941,55.15 93.59,51.011 C101.629,47.888 113.71,44.17 135.952,43.155 C160.01,42.058 167.224,41.826 228.14,41.826" mask="url(#instagram-icon-black-b)"/>
    <path fill="#000" d="M228.14 304.906C186.141 304.906 152.093 270.859 152.093 228.859 152.093 186.86 186.141 152.813 228.14 152.813 270.14 152.813 304.187 186.86 304.187 228.859 304.187 270.859 270.14 304.906 228.14 304.906M228.14 111.707C163.439 111.707 110.988 164.159 110.988 228.859 110.988 293.562 163.439 346.012 228.14 346.012 292.841 346.012 345.292 293.562 345.292 228.859 345.292 164.159 292.841 111.707 228.14 111.707M377.299 107.078C377.299 122.197 365.042 134.455 349.922 134.455 334.803 134.455 322.545 122.197 322.545 107.078 322.545 91.958 334.803 79.701 349.922 79.701 365.042 79.701 377.299 91.958 377.299 107.078"/>
  </g>
</svg>
