<svg xmlns="http://www.w3.org/2000/svg" width="33" height="39" viewBox="0 0 33 39">
  <g fill="#FFF">
    <path d="M3.1875 7.53125C2.85625 7.5312501 2.5775 7.6475 2.4375 7.875 2.2925 8.1100001 2.315 8.4125 2.46875 8.71875L6.1875 15.15625C6.19375 15.16875 6.19375 15.17625 6.1875 15.1875L.34375 25.5C.19125 25.803751.19875 26.10875.34375 26.34375.48375 26.569999.73125 26.71875 1.0625 26.71875L6.5625 26.71875C7.385 26.71875 7.78125 26.16375 8.0625 25.65625 8.0625 25.65625 13.7775 15.54875 14 15.15625 13.9775 15.12 10.21875 8.5625 10.21875 8.5625 9.945 8.0750002 9.53125 7.53125 8.6875 7.53125L3.1875 7.53125zM26.29344 0C25.47219 0 25.11594.5175 24.82094 1.0475 24.82094 1.0475 12.97219 22.06 12.58219 22.75 12.60219 22.7875 20.39719 37.0875 20.39719 37.0875 20.66969 37.575 21.09094 38.135 21.93344 38.135L27.42719 38.135C27.75844 38.135 28.01719 38.01 28.15719 37.78375 28.30344 37.54875 28.29969 37.23875 28.14594 36.93375L20.39219 22.7675C20.38469 22.75625 20.38469 22.7425 20.39219 22.73125L32.56969 1.2C32.72219.89625 32.72594.58625 32.58094.35125 32.44094.125 32.18094 0 31.84969 0L26.29344 0z"/>
  </g>
</svg>
